<mxfile host="app.diagrams.net" modified="2022-11-04T14:22:42.228Z" agent="5.0 (Windows NT 10.0; Win64; x64) AppleWebKit/537.36 (KHTML, like Gecko) Chrome/106.0.0.0 Safari/537.36" etag="D9ok0sHMg141SULJDWmR" version="20.5.1" type="github">
  <diagram id="nXGu2W1vpJ4_o7v7AC1n" name="Страница-1">
    <mxGraphModel dx="496" dy="275" grid="1" gridSize="10" guides="1" tooltips="1" connect="1" arrows="1" fold="1" page="1" pageScale="1" pageWidth="827" pageHeight="1169" math="0" shadow="0">
      <root>
        <mxCell id="0" />
        <mxCell id="1" parent="0" />
        <mxCell id="n1Sq4z97zueV4N0TGGTu-2" value="&lt;table border=&quot;1&quot; width=&quot;100%&quot; height=&quot;100%&quot; cellpadding=&quot;4&quot; style=&quot;width:100%;height:100%;border-collapse:collapse;&quot;&gt;&lt;tbody&gt;&lt;tr&gt;&lt;th align=&quot;center&quot;&gt;User&lt;/th&gt;&lt;/tr&gt;&lt;tr&gt;&lt;td&gt;&amp;nbsp; &amp;nbsp;Name&lt;/td&gt;&lt;/tr&gt;&lt;tr&gt;&lt;td&gt;&amp;nbsp; &amp;nbsp;Email&lt;/td&gt;&lt;/tr&gt;&lt;/tbody&gt;&lt;/table&gt;" style="text;html=1;strokeColor=none;fillColor=none;overflow=fill;" vertex="1" parent="1">
          <mxGeometry x="90" y="60" width="160" height="140" as="geometry" />
        </mxCell>
        <mxCell id="n1Sq4z97zueV4N0TGGTu-3" value="&lt;table border=&quot;1&quot; width=&quot;100%&quot; height=&quot;100%&quot; cellpadding=&quot;4&quot; style=&quot;width:100%;height:100%;border-collapse:collapse;&quot;&gt;&lt;tbody&gt;&lt;tr&gt;&lt;th align=&quot;center&quot;&gt;UserIdentity&lt;/th&gt;&lt;/tr&gt;&lt;tr&gt;&lt;td&gt;&amp;nbsp; &amp;nbsp;JWT&lt;/td&gt;&lt;/tr&gt;&lt;tr&gt;&lt;td&gt;&amp;nbsp; &amp;nbsp;Password&lt;/td&gt;&lt;/tr&gt;&lt;/tbody&gt;&lt;/table&gt;" style="text;html=1;strokeColor=none;fillColor=none;overflow=fill;" vertex="1" parent="1">
          <mxGeometry x="90" y="270" width="160" height="140" as="geometry" />
        </mxCell>
        <mxCell id="n1Sq4z97zueV4N0TGGTu-6" value="" style="endArrow=none;html=1;rounded=0;" edge="1" parent="1">
          <mxGeometry width="50" height="50" relative="1" as="geometry">
            <mxPoint x="160" y="270" as="sourcePoint" />
            <mxPoint x="160" y="210" as="targetPoint" />
            <Array as="points">
              <mxPoint x="160" y="240" />
            </Array>
          </mxGeometry>
        </mxCell>
        <mxCell id="n1Sq4z97zueV4N0TGGTu-7" value="" style="html=1;whiteSpace=wrap;aspect=fixed;shape=isoRectangle;labelBackgroundColor=#000000;labelBorderColor=default;fillColor=#000000;" vertex="1" parent="1">
          <mxGeometry x="148" y="200" width="24" height="14.4" as="geometry" />
        </mxCell>
      </root>
    </mxGraphModel>
  </diagram>
</mxfile>
